<mxfile host="app.diagrams.net" modified="2020-08-23T22:58:31.167Z" agent="5.0 (Macintosh; Intel Mac OS X 10_15_5) AppleWebKit/537.36 (KHTML, like Gecko) Chrome/84.0.4147.135 Safari/537.36" etag="JRfDawbafnnWJWh76LqE" version="13.6.3" type="github">
  <diagram id="C5RBs43oDa-KdzZeNtuy" name="Page-1">
    <mxGraphModel dx="489" dy="623" grid="1" gridSize="10" guides="1" tooltips="1" connect="1" arrows="1" fold="1" page="1" pageScale="1" pageWidth="827" pageHeight="1169" math="0" shadow="0">
      <root>
        <mxCell id="WIyWlLk6GJQsqaUBKTNV-0" />
        <mxCell id="WIyWlLk6GJQsqaUBKTNV-1" parent="WIyWlLk6GJQsqaUBKTNV-0" />
        <mxCell id="CWGT0NXKtXCot0AyJV4v-5" value="" style="edgeStyle=orthogonalEdgeStyle;rounded=0;orthogonalLoop=1;jettySize=auto;html=1;entryX=0.5;entryY=0;entryDx=0;entryDy=0;" edge="1" parent="WIyWlLk6GJQsqaUBKTNV-1" source="CWGT0NXKtXCot0AyJV4v-0" target="CWGT0NXKtXCot0AyJV4v-3">
          <mxGeometry relative="1" as="geometry">
            <mxPoint x="145" y="277" as="targetPoint" />
          </mxGeometry>
        </mxCell>
        <mxCell id="CWGT0NXKtXCot0AyJV4v-0" value="&lt;font style=&quot;font-size: 14px ; line-height: 140%&quot;&gt;範圍 1 到 100;&lt;br&gt;答案為1到100內隨機一個數字&lt;br&gt;&lt;/font&gt;" style="rounded=0;whiteSpace=wrap;html=1;" vertex="1" parent="WIyWlLk6GJQsqaUBKTNV-1">
          <mxGeometry x="40" y="150" width="230" height="70" as="geometry" />
        </mxCell>
        <mxCell id="CWGT0NXKtXCot0AyJV4v-13" style="edgeStyle=orthogonalEdgeStyle;rounded=0;orthogonalLoop=1;jettySize=auto;html=1;exitX=0.5;exitY=1;exitDx=0;exitDy=0;entryX=0.5;entryY=0;entryDx=0;entryDy=0;" edge="1" parent="WIyWlLk6GJQsqaUBKTNV-1" source="CWGT0NXKtXCot0AyJV4v-3" target="CWGT0NXKtXCot0AyJV4v-7">
          <mxGeometry relative="1" as="geometry" />
        </mxCell>
        <mxCell id="CWGT0NXKtXCot0AyJV4v-3" value="&lt;font style=&quot;font-size: 14px ; line-height: 140%&quot;&gt;設定猜數字值為範圍的一半並取整數 &lt;br&gt;&lt;/font&gt;" style="rounded=0;whiteSpace=wrap;html=1;" vertex="1" parent="WIyWlLk6GJQsqaUBKTNV-1">
          <mxGeometry x="40" y="250" width="230" height="70" as="geometry" />
        </mxCell>
        <mxCell id="CWGT0NXKtXCot0AyJV4v-10" style="edgeStyle=orthogonalEdgeStyle;rounded=0;orthogonalLoop=1;jettySize=auto;html=1;exitX=0.5;exitY=1;exitDx=0;exitDy=0;entryX=0.5;entryY=0;entryDx=0;entryDy=0;" edge="1" parent="WIyWlLk6GJQsqaUBKTNV-1" source="CWGT0NXKtXCot0AyJV4v-6" target="CWGT0NXKtXCot0AyJV4v-0">
          <mxGeometry relative="1" as="geometry" />
        </mxCell>
        <mxCell id="CWGT0NXKtXCot0AyJV4v-6" value="START" style="ellipse;whiteSpace=wrap;html=1;" vertex="1" parent="WIyWlLk6GJQsqaUBKTNV-1">
          <mxGeometry x="102.5" y="40" width="105" height="70" as="geometry" />
        </mxCell>
        <mxCell id="CWGT0NXKtXCot0AyJV4v-14" style="edgeStyle=orthogonalEdgeStyle;rounded=0;orthogonalLoop=1;jettySize=auto;html=1;exitX=0.5;exitY=1;exitDx=0;exitDy=0;endArrow=classicThin;endFill=0;entryX=0.5;entryY=0;entryDx=0;entryDy=0;" edge="1" parent="WIyWlLk6GJQsqaUBKTNV-1" source="CWGT0NXKtXCot0AyJV4v-7" target="CWGT0NXKtXCot0AyJV4v-18">
          <mxGeometry relative="1" as="geometry">
            <mxPoint x="155" y="490" as="targetPoint" />
          </mxGeometry>
        </mxCell>
        <mxCell id="CWGT0NXKtXCot0AyJV4v-15" style="rounded=0;orthogonalLoop=1;jettySize=auto;html=1;exitX=1;exitY=0.5;exitDx=0;exitDy=0;endArrow=blockThin;endFill=0;entryX=0;entryY=0.5;entryDx=0;entryDy=0;" edge="1" parent="WIyWlLk6GJQsqaUBKTNV-1" source="CWGT0NXKtXCot0AyJV4v-7" target="CWGT0NXKtXCot0AyJV4v-22">
          <mxGeometry relative="1" as="geometry">
            <mxPoint x="280" y="400" as="targetPoint" />
          </mxGeometry>
        </mxCell>
        <mxCell id="CWGT0NXKtXCot0AyJV4v-7" value="&lt;font style=&quot;font-size: 14px&quot;&gt;猜數字不等於答案&lt;/font&gt;" style="rhombus;whiteSpace=wrap;html=1;" vertex="1" parent="WIyWlLk6GJQsqaUBKTNV-1">
          <mxGeometry x="83.75" y="390" width="142.5" height="100" as="geometry" />
        </mxCell>
        <mxCell id="CWGT0NXKtXCot0AyJV4v-16" value="是" style="text;html=1;resizable=0;autosize=1;align=center;verticalAlign=middle;points=[];fillColor=none;strokeColor=none;rounded=0;" vertex="1" parent="WIyWlLk6GJQsqaUBKTNV-1">
          <mxGeometry x="150" y="530" width="30" height="20" as="geometry" />
        </mxCell>
        <mxCell id="CWGT0NXKtXCot0AyJV4v-17" value="否" style="text;html=1;resizable=0;autosize=1;align=center;verticalAlign=middle;points=[];fillColor=none;strokeColor=none;rounded=0;" vertex="1" parent="WIyWlLk6GJQsqaUBKTNV-1">
          <mxGeometry x="240" y="420" width="30" height="20" as="geometry" />
        </mxCell>
        <mxCell id="CWGT0NXKtXCot0AyJV4v-19" style="edgeStyle=none;rounded=0;orthogonalLoop=1;jettySize=auto;html=1;exitX=0.5;exitY=1;exitDx=0;exitDy=0;endArrow=classicThin;endFill=0;" edge="1" parent="WIyWlLk6GJQsqaUBKTNV-1" source="CWGT0NXKtXCot0AyJV4v-18">
          <mxGeometry relative="1" as="geometry">
            <mxPoint x="155" y="730" as="targetPoint" />
          </mxGeometry>
        </mxCell>
        <mxCell id="CWGT0NXKtXCot0AyJV4v-18" value="恭喜猜中了！" style="rounded=0;whiteSpace=wrap;html=1;" vertex="1" parent="WIyWlLk6GJQsqaUBKTNV-1">
          <mxGeometry x="95" y="620" width="120" height="60" as="geometry" />
        </mxCell>
        <mxCell id="CWGT0NXKtXCot0AyJV4v-20" value="FINISH" style="ellipse;whiteSpace=wrap;html=1;" vertex="1" parent="WIyWlLk6GJQsqaUBKTNV-1">
          <mxGeometry x="93" y="730" width="120" height="80" as="geometry" />
        </mxCell>
        <mxCell id="CWGT0NXKtXCot0AyJV4v-27" style="edgeStyle=orthogonalEdgeStyle;rounded=0;orthogonalLoop=1;jettySize=auto;html=1;exitX=0.5;exitY=1;exitDx=0;exitDy=0;endArrow=classicThin;endFill=0;" edge="1" parent="WIyWlLk6GJQsqaUBKTNV-1" source="CWGT0NXKtXCot0AyJV4v-22" target="CWGT0NXKtXCot0AyJV4v-24">
          <mxGeometry relative="1" as="geometry" />
        </mxCell>
        <mxCell id="CWGT0NXKtXCot0AyJV4v-22" value="&lt;font style=&quot;font-size: 14px&quot;&gt;猜數字&amp;nbsp; &amp;lt;&amp;nbsp; 答案&lt;/font&gt;" style="rhombus;whiteSpace=wrap;html=1;" vertex="1" parent="WIyWlLk6GJQsqaUBKTNV-1">
          <mxGeometry x="280" y="390" width="120" height="100" as="geometry" />
        </mxCell>
        <mxCell id="CWGT0NXKtXCot0AyJV4v-25" style="edgeStyle=orthogonalEdgeStyle;rounded=0;orthogonalLoop=1;jettySize=auto;html=1;exitX=0.5;exitY=1;exitDx=0;exitDy=0;entryX=1;entryY=0.5;entryDx=0;entryDy=0;endArrow=classic;endFill=1;" edge="1" parent="WIyWlLk6GJQsqaUBKTNV-1" source="CWGT0NXKtXCot0AyJV4v-24" target="CWGT0NXKtXCot0AyJV4v-3">
          <mxGeometry relative="1" as="geometry">
            <Array as="points">
              <mxPoint x="340" y="625" />
              <mxPoint x="340" y="680" />
              <mxPoint x="490" y="680" />
              <mxPoint x="490" y="285" />
            </Array>
          </mxGeometry>
        </mxCell>
        <mxCell id="CWGT0NXKtXCot0AyJV4v-24" value="&lt;p style=&quot;line-height: 140%&quot;&gt;&lt;/p&gt;&lt;div style=&quot;text-align: left ; font-size: 14px&quot;&gt;&lt;font style=&quot;font-size: 14px&quot;&gt;更新範圍最小值：猜數字 + 1&lt;/font&gt;&lt;/div&gt;&lt;div style=&quot;text-align: left ; font-size: 14px&quot;&gt;&lt;font style=&quot;font-size: 14px&quot;&gt;最大值不變&lt;/font&gt;&lt;/div&gt;&lt;div style=&quot;text-align: left ; font-size: 14px&quot;&gt;&lt;span&gt;新範圍：(猜數字 + 1) 到 最大值&lt;/span&gt;&lt;/div&gt;&lt;p&gt;&lt;/p&gt;" style="rounded=0;whiteSpace=wrap;html=1;" vertex="1" parent="WIyWlLk6GJQsqaUBKTNV-1">
          <mxGeometry x="220" y="530" width="240" height="80" as="geometry" />
        </mxCell>
        <mxCell id="CWGT0NXKtXCot0AyJV4v-26" value="是" style="text;html=1;resizable=0;autosize=1;align=center;verticalAlign=middle;points=[];fillColor=none;strokeColor=none;rounded=0;" vertex="1" parent="WIyWlLk6GJQsqaUBKTNV-1">
          <mxGeometry x="340" y="500" width="30" height="20" as="geometry" />
        </mxCell>
        <mxCell id="CWGT0NXKtXCot0AyJV4v-28" style="rounded=0;orthogonalLoop=1;jettySize=auto;html=1;exitX=1;exitY=0.5;exitDx=0;exitDy=0;endArrow=blockThin;endFill=0;entryX=0;entryY=0.5;entryDx=0;entryDy=0;" edge="1" parent="WIyWlLk6GJQsqaUBKTNV-1" target="CWGT0NXKtXCot0AyJV4v-30">
          <mxGeometry relative="1" as="geometry">
            <mxPoint x="540" y="440" as="targetPoint" />
            <mxPoint x="400" y="440" as="sourcePoint" />
          </mxGeometry>
        </mxCell>
        <mxCell id="CWGT0NXKtXCot0AyJV4v-29" value="否" style="text;html=1;resizable=0;autosize=1;align=center;verticalAlign=middle;points=[];fillColor=none;strokeColor=none;rounded=0;" vertex="1" parent="WIyWlLk6GJQsqaUBKTNV-1">
          <mxGeometry x="440" y="420" width="30" height="20" as="geometry" />
        </mxCell>
        <mxCell id="CWGT0NXKtXCot0AyJV4v-34" style="edgeStyle=orthogonalEdgeStyle;rounded=0;orthogonalLoop=1;jettySize=auto;html=1;exitX=0.5;exitY=1;exitDx=0;exitDy=0;entryX=0.5;entryY=0;entryDx=0;entryDy=0;endArrow=block;endFill=0;" edge="1" parent="WIyWlLk6GJQsqaUBKTNV-1" source="CWGT0NXKtXCot0AyJV4v-30" target="CWGT0NXKtXCot0AyJV4v-33">
          <mxGeometry relative="1" as="geometry" />
        </mxCell>
        <mxCell id="CWGT0NXKtXCot0AyJV4v-30" value="&lt;font style=&quot;font-size: 14px&quot;&gt;猜數字&amp;nbsp; &amp;gt;&amp;nbsp; 答案&lt;/font&gt;" style="rhombus;whiteSpace=wrap;html=1;" vertex="1" parent="WIyWlLk6GJQsqaUBKTNV-1">
          <mxGeometry x="570" y="390" width="120" height="100" as="geometry" />
        </mxCell>
        <mxCell id="CWGT0NXKtXCot0AyJV4v-32" value="是" style="text;html=1;resizable=0;autosize=1;align=center;verticalAlign=middle;points=[];fillColor=none;strokeColor=none;rounded=0;" vertex="1" parent="WIyWlLk6GJQsqaUBKTNV-1">
          <mxGeometry x="640" y="500" width="30" height="20" as="geometry" />
        </mxCell>
        <mxCell id="CWGT0NXKtXCot0AyJV4v-33" value="&lt;p style=&quot;line-height: 140%&quot;&gt;&lt;/p&gt;&lt;div style=&quot;text-align: left ; font-size: 14px&quot;&gt;&lt;font style=&quot;font-size: 14px&quot;&gt;更新範圍最大值：猜數字 - 1&lt;/font&gt;&lt;/div&gt;&lt;div style=&quot;text-align: left ; font-size: 14px&quot;&gt;&lt;font style=&quot;font-size: 14px&quot;&gt;最小值不變&lt;/font&gt;&lt;/div&gt;&lt;div style=&quot;text-align: left ; font-size: 14px&quot;&gt;&lt;span&gt;新範圍：最小值 到 (猜數字 - 1)&lt;/span&gt;&lt;/div&gt;&lt;p&gt;&lt;/p&gt;" style="rounded=0;whiteSpace=wrap;html=1;" vertex="1" parent="WIyWlLk6GJQsqaUBKTNV-1">
          <mxGeometry x="510" y="530" width="240" height="80" as="geometry" />
        </mxCell>
      </root>
    </mxGraphModel>
  </diagram>
</mxfile>
